<svg width="12" height="13" viewBox="0 0 12 13" fill="none" xmlns="http://www.w3.org/2000/svg">
<path d="M2.8125 1.25C2.2945 1.25 1.875 1.67 1.875 2.1875V10.8125C1.875 11.33 2.295 11.75 2.8125 11.75H9.1875C9.705 11.75 10.125 11.33 10.125 10.8125V6.875C10.125 6.37772 9.92746 5.90081 9.57583 5.54917C9.2242 5.19754 8.74728 5 8.25 5H7.3125C7.06386 5 6.8254 4.90123 6.64959 4.72541C6.47377 4.5496 6.375 4.31114 6.375 4.0625V3.125C6.375 2.62772 6.17746 2.15081 5.82583 1.79917C5.47419 1.44754 4.99728 1.25 4.5 1.25H2.8125Z" fill="black"/>
<path d="M6.4855 1.40796C6.89876 1.88444 7.12588 2.49423 7.125 3.12496V4.06246C7.125 4.16596 7.209 4.24996 7.3125 4.24996H8.25C8.88073 4.24908 9.49052 4.4762 9.967 4.88946C9.74702 4.05281 9.30877 3.28961 8.69706 2.6779C8.08536 2.0662 7.32215 1.62794 6.4855 1.40796Z" fill="black"/>
</svg>
