<svg width="16" height="16" viewBox="0 0 16 16" fill="none" xmlns="http://www.w3.org/2000/svg">
<g clip-path="url(#clip0_412_2346)">
<mask id="mask0_412_2346" style="mask-type:luminance" maskUnits="userSpaceOnUse" x="0" y="0" width="16" height="16">
<path d="M16 0H0V16H16V0Z" fill="white"/>
</mask>
<g mask="url(#mask0_412_2346)">
<path d="M14.0535 5.71994V10.2799C14.0535 11.0266 13.6535 11.7199 13.0068 12.0999L9.0468 14.3866C8.40013 14.7599 7.60013 14.7599 6.9468 14.3866L2.98677 12.0999C2.34011 11.7266 1.94011 11.0333 1.94011 10.2799V5.71994C1.94011 4.97327 2.34011 4.27991 2.98677 3.89991L6.9468 1.61325C7.59347 1.23992 8.39347 1.23992 9.0468 1.61325L13.0068 3.89991C13.6535 4.27991 14.0535 4.96661 14.0535 5.71994Z" stroke="black" stroke-linecap="round" stroke-linejoin="round"/>
<path d="M7.99994 7.3332C8.8578 7.3332 9.55327 6.63775 9.55327 5.77987C9.55327 4.92199 8.8578 4.22656 7.99994 4.22656C7.14207 4.22656 6.44662 4.92199 6.44662 5.77987C6.44662 6.63775 7.14207 7.3332 7.99994 7.3332Z" stroke="black" stroke-linecap="round" stroke-linejoin="round"/>
<path d="M10.6667 11.1062C10.6667 9.9062 9.47334 8.93286 8 8.93286C6.52667 8.93286 5.33334 9.9062 5.33334 11.1062" stroke="black" stroke-linecap="round" stroke-linejoin="round"/>
</g>
</g>
<defs>
<clipPath id="clip0_412_2346">
<rect width="16" height="16" fill="white"/>
</clipPath>
</defs>
</svg>
