<svg width="16" height="16" viewBox="0 0 16 16" fill="none" xmlns="http://www.w3.org/2000/svg">
<path d="M11.2 1.33325H9.46667C7.33333 1.33325 6 2.66659 6 4.79992V7.49992H10.1667C10.44 7.49992 10.6667 7.72658 10.6667 7.99992C10.6667 8.27325 10.44 8.49992 10.1667 8.49992H6V11.1999C6 13.3333 7.33333 14.6666 9.46667 14.6666H11.1933C13.3267 14.6666 14.66 13.3333 14.66 11.1999V4.79992C14.6667 2.66659 13.3333 1.33325 11.2 1.33325Z" fill="black"/>
<path d="M3.03996 7.49995L4.41996 6.11998C4.51996 6.01998 4.56663 5.89331 4.56663 5.76664C4.56663 5.63998 4.51996 5.50664 4.41996 5.41331C4.22663 5.21998 3.90663 5.21998 3.71329 5.41331L1.47996 7.64662C1.28663 7.83995 1.28663 8.15995 1.47996 8.35328L3.71329 10.5866C3.90663 10.78 4.22663 10.78 4.41996 10.5866C4.61329 10.3933 4.61329 10.0733 4.41996 9.87995L3.03996 8.49995H5.99996V7.49995H3.03996Z" fill="black"/>
</svg>
