<svg width="20" height="20" viewBox="0 0 20 20" fill="none" xmlns="http://www.w3.org/2000/svg">
<path d="M12.6996 18.5588H12.5913C8.89126 18.5588 7.10795 17.1005 6.79961 13.8338C6.76628 13.4922 7.01628 13.1838 7.36628 13.1505C7.69961 13.1172 8.01628 13.3755 8.04961 13.7172C8.29128 16.3338 9.5246 17.3088 12.5996 17.3088H12.7079C16.0996 17.3088 17.2996 16.1088 17.2996 12.7172V7.28381C17.2996 3.89214 16.0996 2.69214 12.7079 2.69214H12.5996C9.50793 2.69214 8.27461 3.68381 8.04961 6.35047C8.00795 6.69214 7.71628 6.95047 7.36628 6.91714C7.01628 6.89214 6.76627 6.58381 6.79127 6.24214C7.07461 2.92547 8.86626 1.44214 12.5913 1.44214H12.6996C16.7913 1.44214 18.5413 3.19214 18.5413 7.28381V12.7172C18.5413 16.8088 16.7913 18.5588 12.6996 18.5588Z" fill="#FF8370"/>
<path d="M12.5 10.625H3.01672C2.67506 10.625 2.39172 10.3417 2.39172 10C2.39172 9.65833 2.67506 9.375 3.01672 9.375H12.5C12.8417 9.375 13.125 9.65833 13.125 10C13.125 10.3417 12.8417 10.625 12.5 10.625Z" fill="#FF8370"/>
<path d="M4.87454 13.4164C4.71621 13.4164 4.55788 13.3581 4.43288 13.2331L1.64121 10.4414C1.39954 10.1998 1.39954 9.79976 1.64121 9.55809L4.43288 6.76646C4.67454 6.52479 5.07454 6.52479 5.31621 6.76646C5.55788 7.00812 5.55788 7.40812 5.31621 7.64979L2.96621 9.99976L5.31621 12.3498C5.55788 12.5914 5.55788 12.9914 5.31621 13.2331C5.19954 13.3581 5.03288 13.4164 4.87454 13.4164Z" fill="#FF8370"/>
</svg>
