<svg width="20" height="20" viewBox="0 0 20 20" fill="none" xmlns="http://www.w3.org/2000/svg">
<g clip-path="url(#clip0_443_18660)">
<mask id="mask0_443_18660" style="mask-type:luminance" maskUnits="userSpaceOnUse" x="0" y="0" width="20" height="20">
<path d="M20 0H0V20H20V0Z" fill="white"/>
</mask>
<g mask="url(#mask0_443_18660)">
<path d="M13.3334 1.66553H6.66675C3.33341 1.66553 1.66675 3.33219 1.66675 6.66553V17.4989C1.66675 17.9572 2.04175 18.3322 2.50008 18.3322H13.3334C16.6667 18.3322 18.3334 16.6655 18.3334 13.3322V6.66553C18.3334 3.33219 16.6667 1.66553 13.3334 1.66553ZM11.6667 12.7072H5.83341C5.49175 12.7072 5.20841 12.4239 5.20841 12.0822C5.20841 11.7405 5.49175 11.4572 5.83341 11.4572H11.6667C12.0084 11.4572 12.2917 11.7405 12.2917 12.0822C12.2917 12.4239 12.0084 12.7072 11.6667 12.7072ZM14.1667 8.54053H5.83341C5.49175 8.54053 5.20841 8.25719 5.20841 7.91553C5.20841 7.57386 5.49175 7.29053 5.83341 7.29053H14.1667C14.5084 7.29053 14.7917 7.57386 14.7917 7.91553C14.7917 8.25719 14.5084 8.54053 14.1667 8.54053Z" fill="white"/>
</g>
</g>
<defs>
<clipPath id="clip0_443_18660">
<rect width="20" height="20" fill="white"/>
</clipPath>
</defs>
</svg>
