<svg width="16" height="16" viewBox="0 0 16 16" fill="none" xmlns="http://www.w3.org/2000/svg">
<g clip-path="url(#clip0_412_2309)">
<mask id="mask0_412_2309" style="mask-type:luminance" maskUnits="userSpaceOnUse" x="0" y="0" width="16" height="16">
<path d="M16 0H0V16H16V0Z" fill="white"/>
</mask>
<g mask="url(#mask0_412_2309)">
<path d="M13.1933 9.95362C11.82 11.3203 9.85334 11.7403 8.12667 11.2003L4.98668 14.3336C4.76002 14.5669 4.31335 14.7069 3.99335 14.6603L2.54002 14.4603C2.06002 14.3936 1.61335 13.9403 1.54002 13.4603L1.34002 12.0069C1.29335 11.6869 1.44668 11.2403 1.66668 11.0136L4.80002 7.88028C4.26668 6.14696 4.68002 4.18029 6.05335 2.81362C8.02 0.846956 11.2133 0.846956 13.1867 2.81362C15.16 4.78029 15.16 7.98695 13.1933 9.95362Z" stroke="black" stroke-miterlimit="10" stroke-linecap="round" stroke-linejoin="round"/>
<path d="M4.59335 11.6602L6.12668 13.1935" stroke="black" stroke-miterlimit="10" stroke-linecap="round" stroke-linejoin="round"/>
<path d="M9.66667 7.33325C10.2189 7.33325 10.6667 6.88552 10.6667 6.33325C10.6667 5.78097 10.2189 5.33325 9.66667 5.33325C9.11441 5.33325 8.66667 5.78097 8.66667 6.33325C8.66667 6.88552 9.11441 7.33325 9.66667 7.33325Z" stroke="black" stroke-linecap="round" stroke-linejoin="round"/>
</g>
</g>
<defs>
<clipPath id="clip0_412_2309">
<rect width="16" height="16" fill="white"/>
</clipPath>
</defs>
</svg>
