<svg width="20" height="20" viewBox="0 0 20 20" fill="none" xmlns="http://www.w3.org/2000/svg">
<path d="M17.5 13.3332V6.6665C17.4997 6.37423 17.4225 6.08718 17.2763 5.83414C17.13 5.5811 16.9198 5.37097 16.6667 5.22484L10.8333 1.8915C10.58 1.74522 10.2926 1.66821 10 1.66821C9.70744 1.66821 9.42003 1.74522 9.16667 1.8915L3.33333 5.22484C3.08022 5.37097 2.86998 5.5811 2.72372 5.83414C2.57745 6.08718 2.5003 6.37423 2.5 6.6665V13.3332C2.5003 13.6254 2.57745 13.9125 2.72372 14.1655C2.86998 14.4186 3.08022 14.6287 3.33333 14.7748L9.16667 18.1082C9.42003 18.2545 9.70744 18.3315 10 18.3315C10.2926 18.3315 10.58 18.2545 10.8333 18.1082L16.6667 14.7748C16.9198 14.6287 17.13 14.4186 17.2763 14.1655C17.4225 13.9125 17.4997 13.6254 17.5 13.3332Z" fill="white"/>
<path d="M10 13.3334C11.841 13.3334 13.3333 11.841 13.3333 10.0001C13.3333 8.15913 11.841 6.66675 10 6.66675C8.15906 6.66675 6.66667 8.15913 6.66667 10.0001C6.66667 11.841 8.15906 13.3334 10 13.3334Z" fill="#25253D"/>
</svg>
