<svg width="18" height="18" viewBox="0 0 18 18" fill="none" xmlns="http://www.w3.org/2000/svg">
<g clip-path="url(#clip0_247_854)">
<path d="M12.75 2.50504C13.8902 3.16331 14.8369 4.1101 15.4952 5.25025C16.1535 6.39041 16.5 7.68375 16.5 9.00028C16.5 10.3168 16.1534 11.6101 15.4952 12.7503C14.8369 13.8904 13.8901 14.8372 12.7499 15.4955C11.6098 16.1537 10.3164 16.5003 8.99988 16.5002C7.68335 16.5002 6.39001 16.1536 5.24988 15.4954C4.10974 14.8371 3.16297 13.8903 2.50473 12.7501C1.84648 11.6099 1.49997 10.3166 1.5 9.00004L1.50375 8.75704C1.54575 7.46178 1.92266 6.19951 2.59773 5.09329C3.2728 3.98706 4.22299 3.07463 5.35567 2.44495C6.48835 1.81528 7.76486 1.48984 9.06075 1.50037C10.3566 1.5109 11.6277 1.85704 12.75 2.50504ZM9 11.25C8.80109 11.25 8.61032 11.3291 8.46967 11.4697C8.32902 11.6104 8.25 11.8011 8.25 12V12.0075C8.25 12.2065 8.32902 12.3972 8.46967 12.5379C8.61032 12.6785 8.80109 12.7575 9 12.7575C9.19891 12.7575 9.38968 12.6785 9.53033 12.5379C9.67098 12.3972 9.75 12.2065 9.75 12.0075V12C9.75 11.8011 9.67098 11.6104 9.53033 11.4697C9.38968 11.3291 9.19891 11.25 9 11.25ZM9 6.00004C8.80109 6.00004 8.61032 6.07906 8.46967 6.21971C8.32902 6.36036 8.25 6.55113 8.25 6.75004V9.75004C8.25 9.94895 8.32902 10.1397 8.46967 10.2804C8.61032 10.421 8.80109 10.5 9 10.5C9.19891 10.5 9.38968 10.421 9.53033 10.2804C9.67098 10.1397 9.75 9.94895 9.75 9.75004V6.75004C9.75 6.55113 9.67098 6.36036 9.53033 6.21971C9.38968 6.07906 9.19891 6.00004 9 6.00004Z" fill="#EE4025"/>
</g>
<defs>
<clipPath id="clip0_247_854">
<rect width="18" height="18" fill="white"/>
</clipPath>
</defs>
</svg>
