<svg width="12" height="12" viewBox="0 0 12 12" fill="none" xmlns="http://www.w3.org/2000/svg">
<path fill-rule="evenodd" clip-rule="evenodd" d="M6 0.75C5.30381 0.75 4.63613 1.02656 4.14384 1.51884C3.65156 2.01113 3.375 2.67881 3.375 3.375V4.875C2.97718 4.875 2.59564 5.03304 2.31434 5.31434C2.03304 5.59564 1.875 5.97718 1.875 6.375V9.75C1.875 10.1478 2.03304 10.5294 2.31434 10.8107C2.59564 11.092 2.97718 11.25 3.375 11.25H8.625C9.02282 11.25 9.40436 11.092 9.68566 10.8107C9.96696 10.5294 10.125 10.1478 10.125 9.75V6.375C10.125 5.97718 9.96696 5.59564 9.68566 5.31434C9.40436 5.03304 9.02282 4.875 8.625 4.875V3.375C8.625 1.925 7.45 0.75 6 0.75ZM7.875 4.875V3.375C7.875 2.87772 7.67746 2.40081 7.32583 2.04917C6.97419 1.69754 6.49728 1.5 6 1.5C5.50272 1.5 5.02581 1.69754 4.67417 2.04917C4.32254 2.40081 4.125 2.87772 4.125 3.375V4.875H7.875Z" fill="black"/>
</svg>
