<svg width="24" height="25" viewBox="0 0 24 25" fill="none" xmlns="http://www.w3.org/2000/svg">
<g clip-path="url(#clip0_247_843)">
<path d="M19.9329 13.541C19.7441 14.981 19.1669 16.3424 18.2631 17.4792C17.3594 18.616 16.1632 19.4854 14.8029 19.9941C13.4426 20.5027 11.9695 20.6315 10.5416 20.3666C9.11368 20.1017 7.7848 19.4531 6.69749 18.4904C5.61018 17.5276 4.80545 16.287 4.36961 14.9017C3.93377 13.5164 3.88326 12.0385 4.22349 10.6266C4.56373 9.21476 5.28188 7.92214 6.30091 6.8874C7.31995 5.85266 8.60144 5.11483 10.0079 4.75304C13.9069 3.75304 17.9429 5.76004 19.4329 9.50004" stroke="#EE4025" stroke-width="2" stroke-linecap="round" stroke-linejoin="round"/>
<path d="M20 4.5V9.5H15" stroke="#EE4025" stroke-width="2" stroke-linecap="round" stroke-linejoin="round"/>
</g>
<defs>
<clipPath id="clip0_247_843">
<rect width="24" height="24" fill="white" transform="translate(0 0.5)"/>
</clipPath>
</defs>
</svg>
