<svg xmlns="http://www.w3.org/2000/svg" viewBox="0 0 256.76 185.7"><path d="M256.76.77c-95.11-8.86-99.59,61.76-99.59,61.76L154.32,96.8a138.73,138.73,0,0,0,.7,30.69c3.55,25.35,15.8,57.84,55.31,57.47l17.89.74L228,153s.68-33.84-34.65-48.4C257.9,96.22,256.76.77,256.76.77Z" style="fill:#25253d"/><path d="M99.59,62.53S95.11-8.09,0,.77c0,0-1.14,95.45,63.37,103.86C28,119.19,28.71,153,28.71,153l-.17,32.67L46.43,185c39.51.37,51.76-32.12,55.31-57.47a138.73,138.73,0,0,0,.7-30.69Z" style="fill:#25253d"/><path d="M116.59,167.79l.93,15.78,22.23-8.16,1.31-22.84h0C133.51,159.59,123,164.94,116.59,167.79Z" style="fill:#25253d"/><path d="M117.63,142.34l-2.49.93.91,15.53,25.18-9.29,1.34-23.38h0c-7.2,7.36-18,13-24.9,16.19Z" style="fill:#25253d"/><path d="M118.91,114s0,0,0,0l-5.36,2,.93,15.54L142.87,121l1.41-24.46C137.54,104.35,126.43,110.44,118.91,114Z" style="fill:#25253d"/><path d="M145.9,68.31c-6,8.13-17.16,14.65-25.24,18.62a.29.29,0,0,0-.1,0L112,90.11l.93,15.54L144.42,94Z" style="fill:#25253d"/><path d="M140.3,14.8c-20,4.89-22.21-3.39-32.1.06-9.3,3.26-5.44,21.68-.81,36,2.44,7.56,3.23,15.4,3.68,23.34l.27,4.84L146,66.29c.28-4.8,1.76-9.56,3-14.21C159.05,13.48,150.45,12.33,140.3,14.8Z" style="fill:#25253d"/></svg>
